<svg width="1690" height="1032" viewBox="0 0 1690 1032" fill="none" xmlns="http://www.w3.org/2000/svg">
<path d="M506.218 775.892C506.898 776.412 507.578 776.932 508.278 777.472C510.408 778.992 510.408 778.992 514.218 778.642C516.788 777.212 516.788 777.212 519.408 775.332C529.548 768.722 538.878 767.062 550.988 769.112C562.828 772.242 571.998 779.532 578.598 789.782C582.488 797.082 583.518 804.472 583.448 812.632C583.448 813.492 583.448 814.352 583.448 815.232C583.448 818.042 583.428 820.862 583.418 823.672C583.408 825.632 583.408 827.592 583.408 829.562C583.398 834.702 583.378 839.842 583.358 844.982C583.338 850.242 583.328 855.492 583.318 860.752C583.298 871.052 583.258 881.342 583.218 891.642C575.298 891.642 567.378 891.642 559.218 891.642C559.208 889.012 559.198 886.372 559.188 883.662C559.158 874.952 559.098 866.242 559.038 857.532C558.998 852.252 558.958 846.972 558.948 841.692C558.928 836.592 558.898 831.502 558.848 826.402C558.838 824.462 558.828 822.512 558.828 820.572C558.828 817.852 558.798 815.122 558.768 812.402C558.768 811.602 558.778 810.802 558.778 809.972C558.678 804.752 557.658 801.782 554.218 797.642C549.448 794.042 545.558 792.162 539.478 792.232C534.288 793.182 529.798 796.592 526.618 800.712C524.768 804.572 524.778 808.092 524.788 812.292C524.778 813.142 524.768 814.002 524.758 814.892C524.728 817.722 524.718 820.552 524.708 823.382C524.688 825.342 524.668 827.312 524.648 829.282C524.608 834.442 524.578 839.612 524.548 844.782C524.518 850.052 524.468 855.332 524.428 860.602C524.338 870.952 524.278 881.292 524.218 891.642C516.628 891.642 509.038 891.642 501.218 891.642C501.208 889.072 501.198 886.502 501.188 883.862C501.158 875.362 501.098 866.862 501.038 858.362C500.998 853.212 500.958 848.062 500.948 842.912C500.928 837.942 500.898 832.962 500.848 827.992C500.838 826.102 500.828 824.202 500.828 822.312C500.828 819.652 500.798 816.992 500.768 814.332C500.768 813.552 500.778 812.772 500.778 811.972C500.678 806.442 499.348 803.222 496.218 798.642C492.118 794.752 488.518 792.902 482.908 792.272C476.608 792.912 472.748 794.842 468.638 799.682C465.678 803.922 465.508 807.462 465.558 812.512C465.538 813.802 465.538 813.802 465.528 815.122C465.498 817.942 465.508 820.752 465.508 823.572C465.498 825.542 465.478 827.502 465.468 829.462C465.428 834.612 465.418 839.762 465.408 844.912C465.398 850.182 465.368 855.442 465.328 860.702C465.268 871.012 465.238 881.332 465.218 891.642C457.298 891.642 449.378 891.642 441.218 891.642C441.168 880.882 441.138 870.122 441.118 859.352C441.108 854.352 441.088 849.362 441.068 844.362C441.048 839.532 441.038 834.702 441.028 829.872C441.028 828.032 441.018 826.202 441.008 824.362C440.918 807.972 441.348 793.192 453.138 780.522C468.398 766.702 488.848 763.932 506.218 775.892Z" fill="#050505"/>
<path d="M783.953 768.154C786.043 768.164 788.133 768.174 790.223 768.174C795.693 768.194 801.153 768.244 806.613 768.294C812.213 768.354 817.803 768.374 823.393 768.394C834.333 768.454 845.273 768.544 856.223 768.644C856.223 776.234 856.223 783.824 856.223 791.644C852.173 791.664 852.173 791.664 848.033 791.684C839.113 791.734 830.193 791.804 821.273 791.874C815.863 791.924 810.453 791.964 805.043 791.984C799.833 792.014 794.613 792.054 789.393 792.104C787.393 792.124 785.403 792.134 783.413 792.144C780.623 792.154 777.833 792.174 775.043 792.214C774.223 792.204 773.403 792.204 772.553 792.204C767.873 792.284 765.143 792.854 761.223 795.644C760.563 795.644 759.903 795.644 759.223 795.644C756.863 800.194 756.493 804.624 757.223 809.644C759.293 813.714 760.963 816.004 765.223 817.644C767.963 817.944 767.963 817.944 770.993 817.894C772.733 817.904 772.733 817.904 774.513 817.914C775.763 817.914 777.023 817.914 778.313 817.914C780.293 817.934 782.283 817.944 784.263 817.964C789.143 818.004 794.023 818.014 798.903 818.024C801.633 818.024 804.373 818.044 807.103 818.064C809.673 818.094 812.243 818.094 814.813 818.084C826.403 818.214 836.153 820.704 845.023 828.364C853.013 836.654 855.663 846.094 855.653 857.434C855.413 866.364 852.163 874.624 845.933 881.114C833.193 892.434 819.393 892.064 803.243 891.934C801.213 891.934 799.193 891.924 797.163 891.924C791.873 891.914 786.573 891.884 781.283 891.844C775.863 891.814 770.443 891.804 765.033 891.784C754.423 891.754 743.823 891.704 733.223 891.644C733.223 884.054 733.223 876.464 733.223 868.644C735.913 868.634 738.613 868.624 741.383 868.614C750.293 868.584 759.203 868.524 768.113 868.454C773.513 868.414 778.913 868.384 784.313 868.374C789.523 868.354 794.743 868.324 799.953 868.274C801.943 868.264 803.933 868.254 805.913 868.254C808.703 868.244 811.493 868.224 814.273 868.184C815.503 868.194 815.503 868.194 816.763 868.204C822.023 868.104 825.053 867.134 829.223 863.644C832.183 859.194 831.983 854.854 831.223 849.644C828.783 846.414 826.553 844.864 823.223 842.644C820.483 842.344 820.483 842.344 817.343 842.384C816.133 842.384 814.923 842.374 813.683 842.364C812.373 842.364 811.063 842.364 809.713 842.364C808.353 842.364 806.993 842.354 805.633 842.334C799.853 842.294 794.073 842.264 788.293 842.264C784.763 842.254 781.223 842.234 777.683 842.194C775.703 842.184 773.713 842.184 771.723 842.194C759.873 842.064 750.803 838.994 742.223 830.644C739.873 827.794 737.983 824.874 736.223 821.644C735.883 821.054 735.543 820.464 735.183 819.854C731.533 812.184 732.003 800.664 734.343 792.644C738.213 783.174 745.993 775.404 755.133 770.964C764.393 767.254 774.143 768.024 783.953 768.154Z" fill="#010101"/>
<path d="M1158.96 913.529C1159.83 913.529 1160.7 913.529 1161.59 913.529C1164.46 913.529 1167.32 913.539 1170.18 913.549C1172.17 913.549 1174.16 913.549 1176.14 913.549C1181.37 913.549 1186.6 913.559 1191.82 913.569C1197.16 913.589 1202.49 913.589 1207.83 913.589C1218.29 913.609 1228.76 913.619 1239.22 913.639C1239.22 921.229 1239.22 928.819 1239.22 936.639C1235.31 936.669 1235.31 936.669 1231.32 936.689C1222.69 936.739 1214.07 936.799 1205.45 936.879C1200.22 936.919 1195 936.959 1189.77 936.989C1184.73 937.019 1179.68 937.059 1174.64 937.109C1172.71 937.119 1170.79 937.129 1168.86 937.139C1166.17 937.149 1163.47 937.179 1160.78 937.209C1159.58 937.209 1159.58 937.209 1158.37 937.209C1153.81 937.279 1150.86 937.839 1147.22 940.639C1144.86 943.679 1144.87 946.899 1144.96 950.679C1145.34 953.559 1146.43 955.389 1148.22 957.639C1151.53 959.849 1152.57 959.899 1156.42 959.909C1157.48 959.919 1158.55 959.939 1159.64 959.949C1160.79 959.949 1161.94 959.949 1163.12 959.949C1165.57 959.979 1168.01 959.999 1170.45 960.029C1174.3 960.059 1178.14 960.079 1181.98 960.099C1185.7 960.119 1189.41 960.159 1193.12 960.199C1194.26 960.199 1195.39 960.199 1196.55 960.199C1209.41 960.359 1219.87 962.799 1229.41 971.679C1236.12 978.669 1239.37 985.419 1239.66 995.139C1239.27 1005.9 1235.96 1014.47 1228.59 1022.4C1220.48 1029.91 1211.34 1031.81 1200.58 1031.76C1199.72 1031.76 1198.86 1031.76 1197.97 1031.76C1195.14 1031.76 1192.31 1031.75 1189.48 1031.74C1187.52 1031.74 1185.55 1031.74 1183.59 1031.74C1178.42 1031.73 1173.25 1031.72 1168.09 1031.71C1162.81 1031.7 1157.53 1031.7 1152.26 1031.69C1141.91 1031.68 1131.57 1031.66 1121.22 1031.64C1121.22 1024.05 1121.22 1016.46 1121.22 1008.64C1125.14 1008.62 1125.14 1008.62 1129.13 1008.6C1137.75 1008.55 1146.37 1008.48 1154.99 1008.41C1160.22 1008.36 1165.45 1008.32 1170.67 1008.3C1175.72 1008.27 1180.76 1008.23 1185.81 1008.18C1187.73 1008.16 1189.66 1008.15 1191.58 1008.15C1194.28 1008.14 1196.97 1008.11 1199.67 1008.08C1200.86 1008.08 1200.86 1008.08 1202.08 1008.08C1206.63 1008 1209.6 1007.46 1213.22 1004.64C1215.93 1000.63 1215.9 996.319 1215.22 991.639C1212.86 987.519 1210.66 986.089 1206.22 984.639C1203.42 984.359 1203.42 984.359 1200.43 984.419C1199.29 984.419 1198.15 984.419 1196.97 984.419C1195.74 984.429 1194.51 984.429 1193.25 984.439C1190.63 984.429 1188.01 984.419 1185.4 984.409C1181.28 984.389 1177.17 984.389 1173.06 984.409C1169.08 984.429 1165.1 984.409 1161.12 984.379C1159.31 984.399 1159.31 984.399 1157.45 984.419C1146.81 984.299 1138.58 980.989 1130.72 973.769C1123.37 965.759 1120.75 956.389 1120.98 945.629C1121.76 936.099 1126.55 927.729 1133.6 921.329C1141.55 914.999 1148.92 913.489 1158.96 913.529Z" fill="#030303"/>
<path d="M1029.96 913.529C1030.83 913.529 1031.7 913.529 1032.59 913.529C1035.46 913.529 1038.32 913.539 1041.18 913.549C1043.17 913.549 1045.16 913.549 1047.14 913.549C1052.37 913.549 1057.6 913.559 1062.82 913.569C1068.16 913.589 1073.49 913.589 1078.83 913.589C1089.29 913.609 1099.76 913.619 1110.22 913.639C1110.22 921.229 1110.22 928.819 1110.22 936.639C1106.31 936.669 1106.31 936.669 1102.32 936.689C1093.69 936.739 1085.07 936.799 1076.45 936.879C1071.22 936.919 1066 936.959 1060.77 936.989C1055.73 937.019 1050.68 937.059 1045.64 937.109C1043.71 937.119 1041.79 937.129 1039.86 937.139C1037.17 937.149 1034.47 937.179 1031.78 937.209C1030.58 937.209 1030.58 937.209 1029.37 937.209C1024.82 937.279 1021.84 937.829 1018.22 940.639C1015.51 944.659 1015.55 948.969 1016.22 953.639C1018.59 957.759 1020.79 959.189 1025.22 960.639C1028 960.939 1028 960.939 1030.96 960.899C1032.65 960.909 1032.65 960.909 1034.38 960.919C1036.19 960.919 1036.19 960.919 1038.05 960.919C1040.63 960.939 1043.21 960.959 1045.79 960.979C1049.85 960.999 1053.91 961.019 1057.96 961.019C1061.89 961.029 1065.81 961.069 1069.73 961.099C1071.54 961.099 1071.54 961.099 1073.37 961.089C1084.96 961.219 1092.65 964.269 1101.02 972.269C1108.23 980.049 1110.67 987.779 1110.47 998.329C1109.71 1008.49 1105.39 1017.03 1097.91 1023.96C1089.95 1030.31 1081.53 1031.8 1071.58 1031.76C1070.72 1031.76 1069.86 1031.76 1068.97 1031.76C1066.14 1031.76 1063.31 1031.75 1060.48 1031.74C1058.52 1031.74 1056.55 1031.74 1054.59 1031.74C1049.42 1031.73 1044.25 1031.72 1039.09 1031.71C1033.81 1031.7 1028.53 1031.7 1023.26 1031.69C1012.91 1031.68 1002.57 1031.66 992.217 1031.64C992.217 1024.05 992.217 1016.46 992.217 1008.64C996.137 1008.62 996.137 1008.62 1000.13 1008.6C1008.75 1008.55 1017.37 1008.48 1025.99 1008.41C1031.22 1008.36 1036.45 1008.32 1041.67 1008.3C1046.72 1008.27 1051.76 1008.23 1056.81 1008.18C1058.73 1008.16 1060.66 1008.15 1062.58 1008.15C1065.28 1008.14 1067.97 1008.11 1070.67 1008.08C1071.86 1008.08 1071.86 1008.08 1073.08 1008.08C1077.63 1008 1080.6 1007.46 1084.22 1004.64C1086.93 1000.63 1086.9 996.319 1086.22 991.639C1083.86 987.519 1081.66 986.089 1077.22 984.639C1074.42 984.359 1074.42 984.359 1071.43 984.419C1070.29 984.419 1069.15 984.419 1067.97 984.419C1066.74 984.429 1065.51 984.429 1064.25 984.439C1061.63 984.429 1059.01 984.419 1056.4 984.409C1052.28 984.389 1048.17 984.389 1044.06 984.409C1040.08 984.429 1036.1 984.409 1032.12 984.379C1030.31 984.399 1030.31 984.399 1028.45 984.419C1017.81 984.299 1009.58 980.989 1001.72 973.769C994.367 965.759 991.747 956.389 991.977 945.629C992.757 936.099 997.547 927.729 1004.6 921.329C1012.55 914.999 1019.92 913.489 1029.96 913.529Z" fill="#020202"/>
<path d="M596.219 768.642C604.139 768.642 612.059 768.642 620.219 768.642C620.229 771.742 620.229 771.742 620.249 774.912C620.279 781.772 620.339 788.642 620.399 795.502C620.439 799.662 620.479 803.822 620.489 807.982C620.509 812.002 620.539 816.022 620.589 820.042C620.599 821.572 620.609 823.092 620.609 824.622C620.629 838.352 623.179 848.292 632.839 858.332C641.169 866.042 650.729 868.032 661.799 867.922C672.239 867.072 680.469 861.862 687.469 854.332C693.139 847.382 695.309 839.662 695.429 830.852C695.439 830.182 695.449 829.502 695.459 828.812C695.489 826.592 695.509 824.372 695.539 822.162C695.559 820.612 695.579 819.072 695.599 817.532C695.649 813.482 695.699 809.432 695.749 805.382C695.799 801.242 695.859 797.112 695.909 792.972C696.019 784.862 696.119 776.752 696.219 768.642C704.139 768.642 712.059 768.642 720.219 768.642C720.289 776.712 720.339 784.782 720.379 792.842C720.389 796.592 720.409 800.342 720.449 804.092C720.479 807.722 720.499 811.352 720.499 814.982C720.509 817.012 720.539 819.042 720.559 821.072C720.559 841.002 716.029 859.442 702.099 874.332C689.529 886.312 674.439 892.072 657.249 891.872C640.069 891.422 625.929 885.692 613.779 873.442C610.109 869.432 607.019 865.302 604.219 860.642C603.639 859.732 603.639 859.732 603.049 858.802C596.389 847.132 595.629 833.292 595.829 820.202C595.839 818.702 595.839 817.202 595.849 815.702C595.859 811.802 595.899 807.912 595.949 804.022C595.989 800.022 595.999 796.032 596.019 792.032C596.069 784.232 596.139 776.442 596.219 768.642Z" fill="#050505"/>
<path d="M1183.21 768.529C1184.24 768.529 1184.24 768.529 1185.28 768.529C1187.53 768.529 1189.77 768.539 1192.02 768.549C1193.58 768.549 1195.14 768.549 1196.7 768.549C1200.81 768.549 1204.91 768.559 1209.01 768.569C1213.2 768.589 1217.39 768.589 1221.58 768.589C1229.79 768.609 1238 768.619 1246.22 768.639C1246.22 776.229 1246.22 783.819 1246.22 791.639C1244.26 791.649 1242.29 791.659 1240.27 791.669C1233.74 791.709 1227.21 791.759 1220.68 791.829C1216.73 791.869 1212.78 791.899 1208.82 791.909C1205 791.929 1201.17 791.959 1197.35 792.009C1195.9 792.029 1194.45 792.029 1193 792.039C1179.5 792.049 1167.16 793.799 1157.22 803.639C1149.44 812.029 1146.55 820.969 1146.68 832.249C1147.15 842.789 1151.33 850.869 1158.61 858.439C1166.49 865.099 1174.89 867.719 1185.03 867.849C1186.02 867.859 1186.02 867.859 1187.04 867.879C1189.22 867.909 1191.4 867.939 1193.58 867.959C1195.1 867.979 1196.61 867.999 1198.13 868.019C1202.12 868.079 1206.1 868.129 1210.08 868.179C1214.15 868.229 1218.22 868.279 1222.29 868.339C1230.26 868.439 1238.24 868.549 1246.22 868.639C1246.22 876.229 1246.22 883.819 1246.22 891.639C1237.43 891.689 1228.64 891.729 1219.85 891.749C1215.77 891.759 1211.68 891.769 1207.6 891.789C1203.65 891.819 1199.7 891.829 1195.76 891.829C1194.26 891.839 1192.76 891.839 1191.26 891.849C1179.48 891.939 1167.86 891.779 1157.22 886.209C1156.55 885.859 1155.87 885.509 1155.18 885.159C1144.57 879.409 1136.4 870.979 1130.22 860.639C1129.82 859.989 1129.42 859.339 1129.01 858.659C1121.57 845.189 1120.83 828.359 1124.22 813.639C1129.75 796.199 1140.61 783.529 1156.38 774.579C1161.07 772.179 1166.1 770.829 1171.22 769.639C1171.96 769.469 1172.7 769.289 1173.46 769.109C1176.75 768.549 1179.87 768.519 1183.21 768.529Z" fill="#030303"/>
<path d="M929.212 768.529C930.242 768.529 930.242 768.529 931.282 768.529C933.532 768.529 935.772 768.539 938.022 768.549C939.582 768.549 941.142 768.549 942.702 768.549C946.812 768.549 950.912 768.559 955.012 768.569C959.202 768.589 963.392 768.589 967.582 768.589C975.792 768.609 984.002 768.619 992.222 768.639C992.222 776.229 992.222 783.819 992.222 791.639C990.262 791.649 988.292 791.659 986.272 791.669C979.742 791.709 973.212 791.759 966.682 791.829C962.732 791.869 958.782 791.899 954.822 791.909C951.002 791.929 947.172 791.959 943.352 792.009C941.902 792.029 940.452 792.029 939.002 792.039C925.502 792.049 913.162 793.799 903.222 803.639C895.362 812.119 892.612 821.009 892.742 832.379C893.212 843.649 898.342 852.309 906.532 859.889C913.812 865.819 921.802 867.729 931.032 867.849C932.022 867.859 932.022 867.859 933.042 867.879C935.222 867.909 937.402 867.939 939.582 867.959C941.102 867.979 942.612 867.999 944.132 868.019C948.122 868.079 952.102 868.129 956.082 868.179C960.152 868.229 964.222 868.279 968.292 868.339C976.262 868.439 984.242 868.549 992.222 868.639C992.222 876.229 992.222 883.819 992.222 891.639C983.432 891.689 974.642 891.729 965.852 891.749C961.772 891.759 957.682 891.769 953.602 891.789C949.652 891.819 945.702 891.829 941.762 891.829C940.262 891.839 938.762 891.839 937.262 891.849C925.482 891.939 913.862 891.779 903.222 886.209C902.552 885.859 901.872 885.509 901.182 885.159C890.572 879.409 882.402 870.979 876.222 860.639C875.822 859.989 875.422 859.339 875.012 858.659C867.742 845.489 867.232 828.439 869.912 813.879C870.812 810.979 871.882 808.369 873.222 805.639C873.822 804.289 873.822 804.289 874.432 802.909C881.252 788.909 893.342 777.889 907.822 772.239C910.942 771.249 914.032 770.379 917.222 769.639C917.962 769.469 918.702 769.289 919.462 769.109C922.752 768.549 925.872 768.519 929.212 768.529Z" fill="#020202"/>
<path d="M927.973 913.447C929.483 913.447 930.993 913.457 932.513 913.457C936.463 913.467 940.413 913.487 944.363 913.507C948.403 913.527 952.443 913.537 956.483 913.547C964.393 913.567 972.313 913.597 980.223 913.647C980.223 921.237 980.223 928.827 980.223 936.647C977.293 936.667 977.293 936.667 974.303 936.687C967.823 936.737 961.343 936.807 954.873 936.877C950.943 936.927 947.023 936.957 943.093 936.987C939.303 937.017 935.513 937.057 931.713 937.107C930.273 937.127 928.833 937.137 927.393 937.137C915.313 937.197 905.703 938.697 896.223 946.647C888.093 955.507 885.833 964.177 885.943 975.997C886.603 984.657 890.113 992.457 896.223 998.647C906.403 1007.1 916.713 1008.1 929.533 1008.16C931.003 1008.17 932.473 1008.19 933.933 1008.21C937.773 1008.26 941.603 1008.29 945.433 1008.31C949.353 1008.34 953.273 1008.39 957.193 1008.44C964.873 1008.52 972.543 1008.59 980.223 1008.65C980.223 1016.24 980.223 1023.83 980.223 1031.65C971.563 1031.71 962.903 1031.77 954.243 1031.8C950.223 1031.82 946.203 1031.84 942.173 1031.87C938.283 1031.9 934.393 1031.92 930.503 1031.93C929.033 1031.94 927.553 1031.95 926.083 1031.96C907.753 1032.16 892.873 1027.69 879.333 1014.98C868.903 1004.65 862.153 990.057 861.833 975.297C861.883 957.537 866.853 943.307 879.093 930.207C893.443 916.887 909.003 913.307 927.973 913.447Z" fill="#020202"/>
<path d="M828.321 926.087C839.761 935.827 847.981 948.597 850.221 963.637C850.491 968.897 850.451 974.137 850.411 979.397C850.411 980.907 850.411 982.417 850.411 983.927C850.401 987.877 850.381 991.827 850.361 995.777C850.341 999.827 850.331 1003.87 850.321 1007.91C850.291 1015.82 850.261 1023.73 850.221 1031.64C842.631 1031.64 835.041 1031.64 827.221 1031.64C827.201 1029.69 827.191 1027.74 827.171 1025.73C827.121 1019.25 827.061 1012.77 826.981 1006.3C826.941 1002.37 826.901 998.447 826.871 994.517C826.851 990.727 826.811 986.937 826.761 983.137C826.741 981.697 826.731 980.257 826.721 978.817C826.661 966.697 825.131 957.177 817.221 947.637C810.011 940.527 801.101 937.457 791.091 937.207C781.331 937.537 773.751 940.327 766.221 946.637C759.201 954.297 756.151 961.937 756.011 972.267C756.001 973.237 756.001 973.237 755.981 974.217C755.951 976.337 755.931 978.447 755.901 980.567C755.881 982.037 755.861 983.517 755.841 984.987C755.781 988.847 755.731 992.717 755.691 996.577C755.641 1000.53 755.581 1004.48 755.531 1008.43C755.421 1016.17 755.321 1023.91 755.221 1031.64C747.631 1031.64 740.041 1031.64 732.221 1031.64C732.151 1022.99 732.101 1014.33 732.061 1005.67C732.051 1001.65 732.031 997.617 731.991 993.597C731.961 989.707 731.941 985.817 731.931 981.927C731.931 980.457 731.921 978.977 731.901 977.507C731.711 959.347 735.941 944.317 748.771 930.927C771.101 910.087 803.681 906.657 828.321 926.087Z" fill="#020202"/>
<path d="M1004.22 768.642C1012.14 768.642 1020.06 768.642 1028.22 768.642C1028.22 801.642 1028.22 834.642 1028.22 868.642C1061.22 868.642 1094.22 868.642 1128.22 868.642C1128.22 876.232 1128.22 883.822 1128.22 891.642C1087.3 891.642 1046.38 891.642 1004.22 891.642C1004.22 851.052 1004.22 810.462 1004.22 768.642Z" fill="#050505"/>
<path d="M610.219 913.642C649.159 913.642 688.099 913.642 728.219 913.642C728.219 921.232 728.219 928.822 728.219 936.642C712.709 936.642 697.199 936.642 681.219 936.642C681.219 967.992 681.219 999.342 681.219 1031.64C673.299 1031.64 665.379 1031.64 657.219 1031.64C657.219 1000.29 657.219 968.942 657.219 936.642C641.709 936.642 626.199 936.642 610.219 936.642C610.219 929.052 610.219 921.462 610.219 913.642Z" fill="#060606"/>
<path d="M446.219 960.642C475.919 960.642 505.619 960.642 536.219 960.642C536.219 968.562 536.219 976.482 536.219 984.642C514.109 984.642 491.999 984.642 469.219 984.642C469.219 1000.15 469.219 1015.66 469.219 1031.64C461.629 1031.64 454.039 1031.64 446.219 1031.64C446.219 1008.21 446.219 984.782 446.219 960.642Z" fill="#070707"/>
<path d="M576.219 913.642C583.809 913.642 591.399 913.642 599.219 913.642C599.219 952.582 599.219 991.522 599.219 1031.64C591.629 1031.64 584.039 1031.64 576.219 1031.64C576.219 992.702 576.219 953.762 576.219 913.642Z" fill="#020202"/>
<path d="M446.219 913.642C485.159 913.642 524.099 913.642 564.219 913.642C564.219 921.232 564.219 928.822 564.219 936.642C525.279 936.642 486.339 936.642 446.219 936.642C446.219 929.052 446.219 921.462 446.219 913.642Z" fill="#020202"/>
<path d="M1202.22 816.642C1206.63 818.802 1209.35 821.072 1211.22 825.642C1211.75 831.232 1211.47 834.872 1208.22 839.642C1204 843.552 1200.28 844.372 1194.7 844.172C1190.54 843.282 1187.92 840.822 1185.22 837.642C1183.22 833.642 1183.57 828.972 1184.22 824.642C1188.54 817.002 1193.84 815.712 1202.22 816.642Z" fill="#030303"/>
<path d="M939.219 959.642C942.709 961.632 945.419 964.032 947.219 967.642C947.839 971.942 948.189 975.972 945.949 979.822C943.219 983.022 941.159 985.422 936.829 985.912C928.159 986.222 928.159 986.222 924.659 983.452C921.319 979.602 920.389 977.232 919.839 972.202C920.369 967.242 922.359 964.322 926.029 961.002C930.119 958.462 934.599 958.812 939.219 959.642Z" fill="#040404"/>
<path d="M580.187 394.75C581.097 395.47 581.097 395.47 582.027 396.2C587.637 400.67 593.157 405.23 598.677 409.81C603.067 413.44 607.507 417 611.997 420.5C618.077 425.23 624.027 430.11 629.967 435.02C634.397 438.68 638.857 442.31 643.367 445.89C646.147 448.12 648.917 450.37 651.677 452.62C657.517 457.38 663.377 462.11 669.307 466.75C674.267 470.63 679.177 474.56 684.037 478.56C693.297 486.18 702.617 493.73 712.067 501.12C716.437 504.54 720.747 508.04 725.037 511.56C733.597 518.61 742.187 525.62 750.937 532.44C756.937 537.12 762.817 541.95 768.677 546.81C773.097 550.45 777.547 554.04 782.067 557.56C790.487 564.14 798.757 570.91 807.037 577.67C814.677 583.9 822.327 590.11 830.107 596.16C832.767 598.23 835.377 600.32 837.957 602.5C838.837 603.24 839.717 603.98 840.627 604.75C841.377 605.4 842.137 606.06 842.917 606.73C844.867 608.22 844.867 608.22 846.907 607.75C849.247 606.91 850.657 605.9 852.547 604.3C853.217 603.74 853.887 603.17 854.587 602.59C855.297 601.99 856.017 601.38 856.747 600.75C858.277 599.47 859.817 598.18 861.347 596.9C862.127 596.25 862.897 595.6 863.697 594.93C867.167 592.02 870.677 589.16 874.187 586.31C874.847 585.78 875.507 585.24 876.187 584.68C880.967 580.81 885.797 577.01 890.637 573.23C895.327 569.57 899.917 565.79 904.497 562C910.197 557.29 915.937 552.65 921.767 548.11C928.927 542.51 935.957 536.75 942.997 531C951.157 524.34 959.337 517.71 967.637 511.23C973.067 506.99 978.367 502.6 983.667 498.2C988.757 494 993.917 489.89 999.117 485.83C1003.48 482.42 1007.77 478.95 1012.04 475.44C1020.6 468.39 1029.19 461.38 1037.94 454.56C1043.94 449.88 1049.81 445.06 1055.67 440.2C1060.76 436 1065.92 431.89 1071.12 427.83C1075.48 424.42 1079.77 420.95 1084.04 417.44C1092.87 410.18 1101.73 402.97 1110.69 395.87C1111.25 395.43 1111.82 394.98 1112.4 394.51C1115.48 392.09 1118.59 389.94 1122 388C1122 388.66 1122 389.32 1122 390C1123.26 389.97 1124.51 389.94 1125.8 389.91C1166.89 388.95 1207.89 389 1249 389C1249 496.58 1249 604.16 1249 715C1224.58 715 1200.16 715 1175 715C1175 631.84 1175 548.68 1175 463C1146.69 461.18 1146.69 461.18 1135.94 469.37C1133.67 471.84 1133.67 471.84 1131.47 474.37C1129 477.12 1126.07 479.23 1123.13 481.44C1121.96 482.34 1120.8 483.24 1119.64 484.15C1119.05 484.61 1118.46 485.07 1117.85 485.55C1114.53 488.16 1111.27 490.83 1108 493.5C1103.06 497.53 1098.09 501.52 1093.07 505.44C1086.97 510.19 1081 515.09 1075.04 520.02C1070.61 523.68 1066.14 527.31 1061.64 530.89C1058.16 533.68 1054.71 536.5 1051.25 539.31C1046.23 543.41 1041.18 547.45 1036.07 551.44C1030.06 556.12 1024.19 560.94 1018.33 565.8C1013.24 570 1008.09 574.11 1002.88 578.17C998.527 581.58 994.237 585.05 989.967 588.56C981.397 595.61 972.807 602.62 964.067 609.44C958.057 614.12 952.187 618.94 946.327 623.8C941.237 628 936.087 632.11 930.877 636.17C926.527 639.58 922.237 643.05 917.967 646.56C908.697 654.18 899.387 661.73 889.937 669.12C885.567 672.54 881.267 676.03 876.977 679.55C872.617 683.13 868.247 686.7 863.857 690.24C860.847 692.67 857.847 695.11 854.927 697.64C854.067 698.38 853.197 699.12 852.307 699.87C851.587 700.51 850.857 701.15 850.117 701.8C847.997 703 847.997 703 845.727 703.09C841.527 701.41 838.467 698.56 835.067 695.63C833.537 694.34 832.017 693.06 830.497 691.78C829.357 690.82 829.357 690.82 828.207 689.84C825.067 687.22 821.857 684.7 818.627 682.19C813.687 678.33 808.807 674.42 803.967 670.44C795.397 663.39 786.807 656.38 778.067 649.56C772.057 644.88 766.187 640.06 760.327 635.2C755.237 631 750.087 626.89 744.877 622.83C740.527 619.42 736.237 615.95 731.967 612.44C723.397 605.39 714.807 598.38 706.067 591.56C700.057 586.88 694.187 582.06 688.327 577.2C683.237 573 678.087 568.89 672.877 564.83C668.527 561.42 664.237 557.95 659.967 554.44C651.397 547.39 642.807 540.38 634.067 533.56C628.057 528.88 622.187 524.06 616.327 519.2C611.237 515 606.087 510.89 600.877 506.83C596.527 503.42 592.237 499.95 587.967 496.44C579.207 489.24 570.417 482.07 561.497 475.06C560.927 474.61 560.347 474.16 559.757 473.69C556.587 471.21 553.377 468.8 550.127 466.44C549.097 465.63 548.067 464.83 546.997 464C546.997 463.34 546.997 462.68 546.997 462C536.767 462 526.537 462 515.997 462C515.997 545.16 515.997 628.32 515.997 714C491.907 714 467.817 714 442.997 714C442.997 606.75 442.997 499.5 442.997 389C571.717 387.99 571.717 387.99 580.187 394.75Z" fill="black"/>
<path d="M441 0C466.41 0 491.82 0 518 0C518 84.15 518 168.3 518 255C569.48 254.5 569.48 254.5 622 254C643.43 269.79 643.43 269.79 651.5 276C661.24 283.46 671.1 290.75 681 298C691.8 305.91 702.53 313.9 713.16 322.04C718.9 326.42 724.68 330.74 730.5 335C738.13 340.59 745.66 346.29 753.16 352.04C758.9 356.42 764.68 360.74 770.5 365C778.13 370.59 785.66 376.29 793.16 382.04C799.66 387 806.21 391.87 812.81 396.68C817.15 399.86 821.43 403.09 825.68 406.39C827.1 407.5 827.1 407.5 828.56 408.62C830.4 410.05 832.23 411.49 834.06 412.94C834.89 413.58 835.73 414.23 836.59 414.89C837.32 415.47 838.05 416.05 838.81 416.64C841.31 418.19 843.06 418.82 846 419C848.02 418.09 848.02 418.09 849.79 416.49C850.5 415.92 851.2 415.36 851.92 414.77C852.67 414.15 853.42 413.52 854.19 412.88C855.81 411.56 857.43 410.26 859.05 408.95C859.88 408.29 860.7 407.62 861.55 406.94C865.22 404.04 869 401.33 872.81 398.62C880.36 393.24 887.75 387.65 895.11 382.01C900.86 377.61 906.66 373.28 912.5 369C919.23 364.07 925.88 359.07 932.5 354C939.89 348.35 947.33 342.79 954.84 337.29C960.78 332.93 966.65 328.48 972.5 324C979.89 318.35 987.33 312.79 994.83 307.29C1000.8 302.91 1006.69 298.44 1012.56 293.94C1019.68 288.49 1026.87 283.17 1034.16 277.96C1042.88 271.69 1051.39 265.14 1059.9 258.6C1089.34 236.1 1133.95 254.65 1171 255C1171 170.85 1171 86.7 1171 0C1196.41 0 1221.82 0 1248 0C1248 108.57 1248 217.14 1248 329C1196.19 329.33 1144.38 329.66 1091 330C1076.14 340.93 1076.14 340.93 1061.44 352.06C1054.31 357.52 1047.11 362.85 1039.81 368.07C1033.06 372.91 1026.47 377.94 1019.89 382.99C1014.14 387.39 1008.34 391.72 1002.5 396C995.77 400.93 989.12 405.93 982.5 411C975.11 416.65 967.67 422.21 960.16 427.71C954.22 432.07 948.35 436.52 942.5 441C935.12 446.65 927.68 452.21 920.18 457.7C914.12 462.14 908.15 466.68 902.19 471.25C896 475.99 889.77 480.65 883.39 485.13C875.22 490.91 867.35 497.08 859.4 503.16C854.63 506.81 849.82 510.41 845 514C839.46 511.02 834.66 507.55 829.75 503.62C823.47 498.68 817.14 493.84 810.69 489.12C803.9 484.16 797.18 479.11 790.5 474C783.88 468.93 777.22 463.93 770.5 459C762.87 453.41 755.34 447.71 747.84 441.96C741.33 436.99 734.77 432.12 728.17 427.29C722.2 422.91 716.31 418.44 710.44 413.94C704.03 409.03 697.57 404.2 691 399.5C683.52 394.15 676.19 388.61 668.89 383.01C663.14 378.61 657.34 374.28 651.5 370C643.88 364.42 636.37 358.73 628.87 352.99C622.02 347.75 615.09 342.61 608.13 337.52C607.39 336.98 606.66 336.44 605.91 335.89C605.27 335.43 604.63 334.96 603.98 334.49C601.61 332.71 599.31 330.85 597 329C545.52 328.67 494.04 328.34 441 328C441 219.76 441 111.52 441 0Z" fill="black"/>
<path d="M1445 71C1469.42 71 1493.84 71 1519 71C1519 260.09 1519 449.18 1519 644C1494.58 644 1470.16 644 1445 644C1445 454.91 1445 265.82 1445 71Z" fill="black"/>
<path d="M295 71C319.09 71 343.18 71 368 71C368 260.09 368 449.18 368 644C343.91 644 319.82 644 295 644C295 454.91 295 265.82 295 71Z" fill="black"/>
<path d="M172 71C196.09 71 220.18 71 245 71C245 260.09 245 449.18 245 644C220.91 644 196.82 644 172 644C172 454.91 172 265.82 172 71Z" fill="black"/>
<path d="M1323 71C1346.76 71 1370.52 71 1395 71C1395 260.09 1395 449.18 1395 644C1371.24 644 1347.48 644 1323 644C1323 454.91 1323 265.82 1323 71Z" fill="black"/>
<path d="M1569 244C1593.09 244 1617.18 244 1642 244C1642 270.73 1642 297.46 1642 325C1657.84 325 1673.68 325 1690 325C1690 370.21 1690 415.42 1690 462C1674.16 462 1658.32 462 1642 462C1642 487.74 1642 513.48 1642 540C1617.91 540 1593.82 540 1569 540C1569 442.32 1569 344.64 1569 244Z" fill="black"/>
<path d="M47 244C71.09 244 95.18 244 120 244C120 341.68 120 439.36 120 540C95.91 540 71.82 540 47 540C47 514.26 47 488.52 47 462C31.49 462 15.98 462 0 462C0 416.79 0 371.58 0 325C15.51 325 31.02 325 47 325C47 298.27 47 271.54 47 244Z" fill="black"/>
</svg>
