<svg width="1690" height="1037" viewBox="0 0 1690 1037" fill="none" xmlns="http://www.w3.org/2000/svg">
<path d="M509.218 780.892C509.898 781.412 510.578 781.932 511.278 782.472C513.408 783.992 513.408 783.992 517.218 783.642C519.788 782.212 519.788 782.212 522.408 780.332C532.548 773.722 541.878 772.062 553.988 774.112C565.828 777.242 574.998 784.532 581.598 794.782C585.488 802.082 586.518 809.472 586.448 817.632C586.448 818.492 586.448 819.352 586.448 820.232C586.448 823.042 586.428 825.862 586.418 828.672C586.408 830.632 586.408 832.592 586.408 834.562C586.398 839.702 586.378 844.842 586.358 849.982C586.338 855.242 586.328 860.492 586.318 865.752C586.298 876.052 586.258 886.342 586.218 896.642C578.298 896.642 570.378 896.642 562.218 896.642C562.208 894.012 562.198 891.372 562.188 888.662C562.158 879.952 562.098 871.242 562.038 862.532C561.998 857.252 561.958 851.972 561.948 846.692C561.928 841.592 561.898 836.502 561.848 831.402C561.838 829.462 561.828 827.512 561.828 825.572C561.828 822.852 561.798 820.122 561.768 817.402C561.768 816.602 561.778 815.802 561.778 814.972C561.678 809.752 560.658 806.782 557.218 802.642C552.448 799.042 548.558 797.162 542.478 797.232C537.288 798.182 532.798 801.592 529.618 805.712C527.768 809.572 527.778 813.092 527.788 817.292C527.778 818.142 527.768 819.002 527.758 819.892C527.728 822.722 527.718 825.552 527.708 828.382C527.688 830.342 527.668 832.312 527.648 834.282C527.608 839.442 527.578 844.612 527.548 849.782C527.518 855.052 527.468 860.332 527.428 865.602C527.338 875.952 527.278 886.292 527.218 896.642C519.628 896.642 512.038 896.642 504.218 896.642C504.208 894.072 504.198 891.502 504.188 888.862C504.158 880.362 504.098 871.862 504.038 863.362C503.998 858.212 503.958 853.062 503.948 847.912C503.928 842.942 503.898 837.962 503.848 832.992C503.838 831.102 503.828 829.202 503.828 827.312C503.828 824.652 503.798 821.992 503.768 819.332C503.768 818.552 503.778 817.772 503.778 816.972C503.678 811.442 502.348 808.222 499.218 803.642C495.118 799.752 491.518 797.902 485.908 797.272C479.608 797.912 475.748 799.842 471.638 804.682C468.678 808.922 468.508 812.462 468.558 817.512C468.538 818.802 468.538 818.802 468.528 820.122C468.498 822.942 468.508 825.752 468.508 828.572C468.498 830.542 468.478 832.502 468.468 834.462C468.428 839.612 468.418 844.762 468.408 849.912C468.398 855.182 468.368 860.442 468.328 865.702C468.268 876.012 468.238 886.332 468.218 896.642C460.298 896.642 452.378 896.642 444.218 896.642C444.168 885.882 444.138 875.122 444.118 864.352C444.108 859.352 444.088 854.362 444.068 849.362C444.048 844.532 444.038 839.702 444.028 834.872C444.028 833.032 444.018 831.202 444.008 829.362C443.918 812.972 444.348 798.192 456.138 785.522C471.398 771.702 491.848 768.932 509.218 780.892Z" fill="#871818"/>
<path d="M786.953 773.154C789.043 773.164 791.133 773.174 793.223 773.174C798.693 773.194 804.153 773.244 809.613 773.294C815.213 773.354 820.803 773.374 826.393 773.394C837.333 773.454 848.273 773.544 859.223 773.644C859.223 781.234 859.223 788.824 859.223 796.644C855.173 796.664 855.173 796.664 851.033 796.684C842.113 796.734 833.193 796.804 824.273 796.874C818.863 796.924 813.453 796.964 808.043 796.984C802.833 797.014 797.613 797.054 792.393 797.104C790.393 797.124 788.403 797.134 786.413 797.144C783.623 797.154 780.833 797.174 778.043 797.214C777.223 797.204 776.403 797.204 775.553 797.204C770.873 797.284 768.143 797.854 764.223 800.644C763.563 800.644 762.903 800.644 762.223 800.644C759.863 805.194 759.493 809.624 760.223 814.644C762.293 818.714 763.963 821.004 768.223 822.644C770.963 822.944 770.963 822.944 773.993 822.894C775.733 822.904 775.733 822.904 777.513 822.914C778.763 822.914 780.023 822.914 781.313 822.914C783.293 822.934 785.283 822.944 787.263 822.964C792.143 823.004 797.023 823.014 801.903 823.024C804.633 823.024 807.373 823.044 810.103 823.064C812.673 823.094 815.243 823.094 817.813 823.084C829.403 823.214 839.153 825.704 848.023 833.364C856.013 841.654 858.663 851.094 858.653 862.434C858.413 871.364 855.163 879.624 848.933 886.114C836.193 897.434 822.393 897.064 806.243 896.934C804.213 896.934 802.193 896.924 800.163 896.924C794.873 896.914 789.573 896.884 784.283 896.844C778.863 896.814 773.443 896.804 768.033 896.784C757.423 896.754 746.823 896.704 736.223 896.644C736.223 889.054 736.223 881.464 736.223 873.644C738.913 873.634 741.613 873.624 744.383 873.614C753.293 873.584 762.203 873.524 771.113 873.454C776.513 873.414 781.913 873.384 787.313 873.374C792.523 873.354 797.743 873.324 802.953 873.274C804.943 873.264 806.933 873.254 808.913 873.254C811.703 873.244 814.493 873.224 817.273 873.184C818.503 873.194 818.503 873.194 819.763 873.204C825.023 873.104 828.053 872.134 832.223 868.644C835.183 864.194 834.983 859.854 834.223 854.644C831.783 851.414 829.553 849.864 826.223 847.644C823.483 847.344 823.483 847.344 820.343 847.384C819.133 847.384 817.923 847.374 816.683 847.364C815.373 847.364 814.063 847.364 812.713 847.364C811.353 847.364 809.993 847.354 808.633 847.334C802.853 847.294 797.073 847.264 791.293 847.264C787.763 847.254 784.223 847.234 780.683 847.194C778.703 847.184 776.713 847.184 774.723 847.194C762.873 847.064 753.803 843.994 745.223 835.644C742.873 832.794 740.983 829.874 739.223 826.644C738.883 826.054 738.543 825.464 738.183 824.854C734.533 817.184 735.003 805.664 737.343 797.644C741.213 788.174 748.993 780.404 758.133 775.964C767.393 772.254 777.143 773.024 786.953 773.154Z" fill="#871818"/>
<path d="M1161.96 918.529C1162.83 918.529 1163.7 918.529 1164.59 918.529C1167.46 918.529 1170.32 918.539 1173.18 918.549C1175.17 918.549 1177.16 918.549 1179.14 918.549C1184.37 918.549 1189.6 918.559 1194.82 918.569C1200.16 918.589 1205.49 918.589 1210.83 918.589C1221.29 918.609 1231.76 918.619 1242.22 918.639C1242.22 926.229 1242.22 933.819 1242.22 941.639C1238.31 941.669 1238.31 941.669 1234.32 941.689C1225.69 941.739 1217.07 941.799 1208.45 941.879C1203.22 941.919 1198 941.959 1192.77 941.989C1187.73 942.019 1182.68 942.059 1177.64 942.109C1175.71 942.119 1173.79 942.129 1171.86 942.139C1169.17 942.149 1166.47 942.179 1163.78 942.209C1162.58 942.209 1162.58 942.209 1161.37 942.209C1156.81 942.279 1153.86 942.839 1150.22 945.639C1147.86 948.679 1147.87 951.899 1147.96 955.679C1148.34 958.559 1149.43 960.389 1151.22 962.639C1154.53 964.849 1155.57 964.899 1159.42 964.909C1160.48 964.919 1161.55 964.939 1162.64 964.949C1163.79 964.949 1164.94 964.949 1166.12 964.949C1168.57 964.979 1171.01 964.999 1173.45 965.029C1177.3 965.059 1181.14 965.079 1184.98 965.099C1188.7 965.119 1192.41 965.159 1196.12 965.199C1197.26 965.199 1198.39 965.199 1199.55 965.199C1212.41 965.359 1222.87 967.799 1232.41 976.679C1239.12 983.669 1242.37 990.419 1242.66 1000.14C1242.27 1010.9 1238.96 1019.47 1231.59 1027.4C1223.48 1034.91 1214.34 1036.81 1203.58 1036.76C1202.72 1036.76 1201.86 1036.76 1200.97 1036.76C1198.14 1036.76 1195.31 1036.75 1192.48 1036.74C1190.52 1036.74 1188.55 1036.74 1186.59 1036.74C1181.42 1036.73 1176.25 1036.72 1171.09 1036.71C1165.81 1036.7 1160.53 1036.7 1155.26 1036.69C1144.91 1036.68 1134.57 1036.66 1124.22 1036.64C1124.22 1029.05 1124.22 1021.46 1124.22 1013.64C1128.14 1013.62 1128.14 1013.62 1132.13 1013.6C1140.75 1013.55 1149.37 1013.48 1157.99 1013.41C1163.22 1013.36 1168.45 1013.32 1173.67 1013.3C1178.72 1013.27 1183.76 1013.23 1188.81 1013.18C1190.73 1013.16 1192.66 1013.15 1194.58 1013.15C1197.28 1013.14 1199.97 1013.11 1202.67 1013.08C1203.86 1013.08 1203.86 1013.08 1205.08 1013.08C1209.63 1013 1212.6 1012.46 1216.22 1009.64C1218.93 1005.63 1218.9 1001.32 1218.22 996.639C1215.86 992.519 1213.66 991.089 1209.22 989.639C1206.42 989.359 1206.42 989.359 1203.43 989.419C1202.29 989.419 1201.15 989.419 1199.97 989.419C1198.74 989.429 1197.51 989.429 1196.25 989.439C1193.63 989.429 1191.01 989.419 1188.4 989.409C1184.28 989.389 1180.17 989.389 1176.06 989.409C1172.08 989.429 1168.1 989.409 1164.12 989.379C1162.31 989.399 1162.31 989.399 1160.45 989.419C1149.81 989.299 1141.58 985.989 1133.72 978.769C1126.37 970.759 1123.75 961.389 1123.98 950.629C1124.76 941.099 1129.55 932.729 1136.6 926.329C1144.55 919.999 1151.92 918.489 1161.96 918.529Z" fill="#871818"/>
<path d="M1032.96 918.529C1033.83 918.529 1034.7 918.529 1035.59 918.529C1038.46 918.529 1041.32 918.539 1044.18 918.549C1046.17 918.549 1048.16 918.549 1050.14 918.549C1055.37 918.549 1060.6 918.559 1065.82 918.569C1071.16 918.589 1076.49 918.589 1081.83 918.589C1092.29 918.609 1102.76 918.619 1113.22 918.639C1113.22 926.229 1113.22 933.819 1113.22 941.639C1109.31 941.669 1109.31 941.669 1105.32 941.689C1096.69 941.739 1088.07 941.799 1079.45 941.879C1074.22 941.919 1069 941.959 1063.77 941.989C1058.73 942.019 1053.68 942.059 1048.64 942.109C1046.71 942.119 1044.79 942.129 1042.86 942.139C1040.17 942.149 1037.47 942.179 1034.78 942.209C1033.58 942.209 1033.58 942.209 1032.37 942.209C1027.82 942.279 1024.84 942.829 1021.22 945.639C1018.51 949.659 1018.55 953.969 1019.22 958.639C1021.59 962.759 1023.79 964.189 1028.22 965.639C1031 965.939 1031 965.939 1033.96 965.899C1035.65 965.909 1035.65 965.909 1037.38 965.919C1039.19 965.919 1039.19 965.919 1041.05 965.919C1043.63 965.939 1046.21 965.959 1048.79 965.979C1052.85 965.999 1056.91 966.019 1060.96 966.019C1064.89 966.029 1068.81 966.069 1072.73 966.099C1074.54 966.099 1074.54 966.099 1076.37 966.089C1087.96 966.219 1095.65 969.269 1104.02 977.269C1111.23 985.049 1113.67 992.779 1113.47 1003.33C1112.71 1013.49 1108.39 1022.03 1100.91 1028.96C1092.95 1035.31 1084.53 1036.8 1074.58 1036.76C1073.72 1036.76 1072.86 1036.76 1071.97 1036.76C1069.14 1036.76 1066.31 1036.75 1063.48 1036.74C1061.52 1036.74 1059.55 1036.74 1057.59 1036.74C1052.42 1036.73 1047.25 1036.72 1042.09 1036.71C1036.81 1036.7 1031.53 1036.7 1026.26 1036.69C1015.91 1036.68 1005.57 1036.66 995.217 1036.64C995.217 1029.05 995.217 1021.46 995.217 1013.64C999.137 1013.62 999.137 1013.62 1003.13 1013.6C1011.75 1013.55 1020.37 1013.48 1028.99 1013.41C1034.22 1013.36 1039.45 1013.32 1044.67 1013.3C1049.72 1013.27 1054.76 1013.23 1059.81 1013.18C1061.73 1013.16 1063.66 1013.15 1065.58 1013.15C1068.28 1013.14 1070.97 1013.11 1073.67 1013.08C1074.86 1013.08 1074.86 1013.08 1076.08 1013.08C1080.63 1013 1083.6 1012.46 1087.22 1009.64C1089.93 1005.63 1089.9 1001.32 1089.22 996.639C1086.86 992.519 1084.66 991.089 1080.22 989.639C1077.42 989.359 1077.42 989.359 1074.43 989.419C1073.29 989.419 1072.15 989.419 1070.97 989.419C1069.74 989.429 1068.51 989.429 1067.25 989.439C1064.63 989.429 1062.01 989.419 1059.4 989.409C1055.28 989.389 1051.17 989.389 1047.06 989.409C1043.08 989.429 1039.1 989.409 1035.12 989.379C1033.31 989.399 1033.31 989.399 1031.45 989.419C1020.81 989.299 1012.58 985.989 1004.72 978.769C997.367 970.759 994.747 961.389 994.977 950.629C995.757 941.099 1000.55 932.729 1007.6 926.329C1015.55 919.999 1022.92 918.489 1032.96 918.529Z" fill="#871818"/>
<path d="M599.219 773.642C607.139 773.642 615.059 773.642 623.219 773.642C623.229 776.742 623.229 776.742 623.249 779.912C623.279 786.772 623.339 793.642 623.399 800.502C623.439 804.662 623.479 808.822 623.489 812.982C623.509 817.002 623.539 821.022 623.589 825.042C623.599 826.572 623.609 828.092 623.609 829.622C623.629 843.352 626.179 853.292 635.839 863.332C644.169 871.042 653.729 873.032 664.799 872.922C675.239 872.072 683.469 866.862 690.469 859.332C696.139 852.382 698.309 844.662 698.429 835.852C698.439 835.182 698.449 834.502 698.459 833.812C698.489 831.592 698.509 829.372 698.539 827.162C698.559 825.612 698.579 824.072 698.599 822.532C698.649 818.482 698.699 814.432 698.749 810.382C698.799 806.242 698.859 802.112 698.909 797.972C699.019 789.862 699.119 781.752 699.219 773.642C707.139 773.642 715.059 773.642 723.219 773.642C723.289 781.712 723.339 789.782 723.379 797.842C723.389 801.592 723.409 805.342 723.449 809.092C723.479 812.722 723.499 816.352 723.499 819.982C723.509 822.012 723.539 824.042 723.559 826.072C723.559 846.002 719.029 864.442 705.099 879.332C692.529 891.312 677.439 897.072 660.249 896.872C643.069 896.422 628.929 890.692 616.779 878.442C613.109 874.432 610.019 870.302 607.219 865.642C606.639 864.732 606.639 864.732 606.049 863.802C599.389 852.132 598.629 838.292 598.829 825.202C598.839 823.702 598.839 822.202 598.849 820.702C598.859 816.802 598.899 812.912 598.949 809.022C598.989 805.022 598.999 801.032 599.019 797.032C599.069 789.232 599.139 781.442 599.219 773.642Z" fill="#871818"/>
<path d="M1186.21 773.529C1187.24 773.529 1187.24 773.529 1188.28 773.529C1190.53 773.529 1192.77 773.539 1195.02 773.549C1196.58 773.549 1198.14 773.549 1199.7 773.549C1203.81 773.549 1207.91 773.559 1212.01 773.569C1216.2 773.589 1220.39 773.589 1224.58 773.589C1232.79 773.609 1241 773.619 1249.22 773.639C1249.22 781.229 1249.22 788.819 1249.22 796.639C1247.26 796.649 1245.29 796.659 1243.27 796.669C1236.74 796.709 1230.21 796.759 1223.68 796.829C1219.73 796.869 1215.78 796.899 1211.82 796.909C1208 796.929 1204.17 796.959 1200.35 797.009C1198.9 797.029 1197.45 797.029 1196 797.039C1182.5 797.049 1170.16 798.799 1160.22 808.639C1152.44 817.029 1149.55 825.969 1149.68 837.249C1150.15 847.789 1154.33 855.869 1161.61 863.439C1169.49 870.099 1177.89 872.719 1188.03 872.849C1189.02 872.859 1189.02 872.859 1190.04 872.879C1192.22 872.909 1194.4 872.939 1196.58 872.959C1198.1 872.979 1199.61 872.999 1201.13 873.019C1205.12 873.079 1209.1 873.129 1213.08 873.179C1217.15 873.229 1221.22 873.279 1225.29 873.339C1233.26 873.439 1241.24 873.549 1249.22 873.639C1249.22 881.229 1249.22 888.819 1249.22 896.639C1240.43 896.689 1231.64 896.729 1222.85 896.749C1218.77 896.759 1214.68 896.769 1210.6 896.789C1206.65 896.819 1202.7 896.829 1198.76 896.829C1197.26 896.839 1195.76 896.839 1194.26 896.849C1182.48 896.939 1170.86 896.779 1160.22 891.209C1159.55 890.859 1158.87 890.509 1158.18 890.159C1147.57 884.409 1139.4 875.979 1133.22 865.639C1132.82 864.989 1132.42 864.339 1132.01 863.659C1124.57 850.189 1123.83 833.359 1127.22 818.639C1132.75 801.199 1143.61 788.529 1159.38 779.579C1164.07 777.179 1169.1 775.829 1174.22 774.639C1174.96 774.469 1175.7 774.289 1176.46 774.109C1179.75 773.549 1182.87 773.519 1186.21 773.529Z" fill="#871818"/>
<path d="M932.212 773.529C933.242 773.529 933.242 773.529 934.282 773.529C936.532 773.529 938.772 773.539 941.022 773.549C942.582 773.549 944.142 773.549 945.702 773.549C949.812 773.549 953.912 773.559 958.012 773.569C962.202 773.589 966.392 773.589 970.582 773.589C978.792 773.609 987.002 773.619 995.222 773.639C995.222 781.229 995.222 788.819 995.222 796.639C993.262 796.649 991.292 796.659 989.272 796.669C982.742 796.709 976.212 796.759 969.682 796.829C965.732 796.869 961.782 796.899 957.822 796.909C954.002 796.929 950.172 796.959 946.352 797.009C944.902 797.029 943.452 797.029 942.002 797.039C928.502 797.049 916.162 798.799 906.222 808.639C898.362 817.119 895.612 826.009 895.742 837.379C896.212 848.649 901.342 857.309 909.532 864.889C916.812 870.819 924.802 872.729 934.032 872.849C935.022 872.859 935.022 872.859 936.042 872.879C938.222 872.909 940.402 872.939 942.582 872.959C944.102 872.979 945.612 872.999 947.132 873.019C951.122 873.079 955.102 873.129 959.082 873.179C963.152 873.229 967.222 873.279 971.292 873.339C979.262 873.439 987.242 873.549 995.222 873.639C995.222 881.229 995.222 888.819 995.222 896.639C986.432 896.689 977.642 896.729 968.852 896.749C964.772 896.759 960.682 896.769 956.602 896.789C952.652 896.819 948.702 896.829 944.762 896.829C943.262 896.839 941.762 896.839 940.262 896.849C928.482 896.939 916.862 896.779 906.222 891.209C905.552 890.859 904.872 890.509 904.182 890.159C893.572 884.409 885.402 875.979 879.222 865.639C878.822 864.989 878.422 864.339 878.012 863.659C870.742 850.489 870.232 833.439 872.912 818.879C873.812 815.979 874.882 813.369 876.222 810.639C876.822 809.289 876.822 809.289 877.432 807.909C884.252 793.909 896.342 782.889 910.822 777.239C913.942 776.249 917.032 775.379 920.222 774.639C920.962 774.469 921.702 774.289 922.462 774.109C925.752 773.549 928.872 773.519 932.212 773.529Z" fill="#871818"/>
<path d="M930.973 918.447C932.483 918.447 933.993 918.457 935.513 918.457C939.463 918.467 943.413 918.487 947.363 918.507C951.403 918.527 955.443 918.537 959.483 918.547C967.393 918.567 975.313 918.597 983.223 918.647C983.223 926.237 983.223 933.827 983.223 941.647C980.293 941.667 980.293 941.667 977.303 941.687C970.823 941.737 964.343 941.807 957.873 941.877C953.943 941.927 950.023 941.957 946.093 941.987C942.303 942.017 938.513 942.057 934.713 942.107C933.273 942.127 931.833 942.137 930.393 942.137C918.313 942.197 908.703 943.697 899.223 951.647C891.093 960.507 888.833 969.177 888.943 980.997C889.603 989.657 893.113 997.457 899.223 1003.65C909.403 1012.1 919.713 1013.1 932.533 1013.16C934.003 1013.17 935.473 1013.19 936.933 1013.21C940.773 1013.26 944.603 1013.29 948.433 1013.31C952.353 1013.34 956.273 1013.39 960.193 1013.44C967.873 1013.52 975.543 1013.59 983.223 1013.65C983.223 1021.24 983.223 1028.83 983.223 1036.65C974.563 1036.71 965.903 1036.77 957.243 1036.8C953.223 1036.82 949.203 1036.84 945.173 1036.87C941.283 1036.9 937.393 1036.92 933.503 1036.93C932.033 1036.94 930.553 1036.95 929.083 1036.96C910.753 1037.16 895.873 1032.69 882.333 1019.98C871.903 1009.65 865.153 995.057 864.833 980.297C864.883 962.537 869.853 948.307 882.093 935.207C896.443 921.887 912.003 918.307 930.973 918.447Z" fill="#871818"/>
<path d="M831.321 931.087C842.761 940.827 850.981 953.597 853.221 968.637C853.491 973.897 853.451 979.137 853.411 984.397C853.411 985.907 853.411 987.417 853.411 988.927C853.401 992.877 853.381 996.827 853.361 1000.78C853.341 1004.83 853.331 1008.87 853.321 1012.91C853.291 1020.82 853.261 1028.73 853.221 1036.64C845.631 1036.64 838.041 1036.64 830.221 1036.64C830.201 1034.69 830.191 1032.74 830.171 1030.73C830.121 1024.25 830.061 1017.77 829.981 1011.3C829.941 1007.37 829.901 1003.45 829.871 999.517C829.851 995.727 829.811 991.937 829.761 988.137C829.741 986.697 829.731 985.257 829.721 983.817C829.661 971.697 828.131 962.177 820.221 952.637C813.011 945.527 804.101 942.457 794.091 942.207C784.331 942.537 776.751 945.327 769.221 951.637C762.201 959.297 759.151 966.937 759.011 977.267C759.001 978.237 759.001 978.237 758.981 979.217C758.951 981.337 758.931 983.447 758.901 985.567C758.881 987.037 758.861 988.517 758.841 989.987C758.781 993.847 758.731 997.717 758.691 1001.58C758.641 1005.53 758.581 1009.48 758.531 1013.43C758.421 1021.17 758.321 1028.91 758.221 1036.64C750.631 1036.64 743.041 1036.64 735.221 1036.64C735.151 1027.99 735.101 1019.33 735.061 1010.67C735.051 1006.65 735.031 1002.62 734.991 998.597C734.961 994.707 734.941 990.817 734.931 986.927C734.931 985.457 734.921 983.977 734.901 982.507C734.711 964.347 738.941 949.317 751.771 935.927C774.101 915.087 806.681 911.657 831.321 931.087Z" fill="#871818"/>
<path d="M1007.22 773.642C1015.14 773.642 1023.06 773.642 1031.22 773.642C1031.22 806.642 1031.22 839.642 1031.22 873.642C1064.22 873.642 1097.22 873.642 1131.22 873.642C1131.22 881.232 1131.22 888.822 1131.22 896.642C1090.3 896.642 1049.38 896.642 1007.22 896.642C1007.22 856.052 1007.22 815.462 1007.22 773.642Z" fill="#871818"/>
<path d="M613.219 918.642C652.159 918.642 691.099 918.642 731.219 918.642C731.219 926.232 731.219 933.822 731.219 941.642C715.709 941.642 700.199 941.642 684.219 941.642C684.219 972.992 684.219 1004.34 684.219 1036.64C676.299 1036.64 668.379 1036.64 660.219 1036.64C660.219 1005.29 660.219 973.942 660.219 941.642C644.709 941.642 629.199 941.642 613.219 941.642C613.219 934.052 613.219 926.462 613.219 918.642Z" fill="#871818"/>
<path d="M449.219 965.642C478.919 965.642 508.619 965.642 539.219 965.642C539.219 973.562 539.219 981.482 539.219 989.642C517.109 989.642 494.999 989.642 472.219 989.642C472.219 1005.15 472.219 1020.66 472.219 1036.64C464.629 1036.64 457.039 1036.64 449.219 1036.64C449.219 1013.21 449.219 989.782 449.219 965.642Z" fill="#871818"/>
<path d="M579.219 918.642C586.809 918.642 594.399 918.642 602.219 918.642C602.219 957.582 602.219 996.522 602.219 1036.64C594.629 1036.64 587.039 1036.64 579.219 1036.64C579.219 997.702 579.219 958.762 579.219 918.642Z" fill="#871818"/>
<path d="M449.219 918.642C488.159 918.642 527.099 918.642 567.219 918.642C567.219 926.232 567.219 933.822 567.219 941.642C528.279 941.642 489.339 941.642 449.219 941.642C449.219 934.052 449.219 926.462 449.219 918.642Z" fill="#871818"/>
<path d="M1205.22 821.642C1209.63 823.802 1212.35 826.072 1214.22 830.642C1214.75 836.232 1214.47 839.872 1211.22 844.642C1207 848.552 1203.28 849.372 1197.7 849.172C1193.54 848.282 1190.92 845.822 1188.22 842.642C1186.22 838.642 1186.57 833.972 1187.22 829.642C1191.54 822.002 1196.84 820.712 1205.22 821.642Z" fill="#871818"/>
<path d="M942.219 964.642C945.709 966.632 948.419 969.032 950.219 972.642C950.839 976.942 951.189 980.972 948.949 984.822C946.219 988.022 944.159 990.422 939.829 990.912C931.159 991.222 931.159 991.222 927.659 988.452C924.319 984.602 923.389 982.232 922.839 977.202C923.369 972.242 925.359 969.322 929.029 966.002C933.119 963.462 937.599 963.812 942.219 964.642Z" fill="#871818"/>
<path d="M580.187 394.75C581.097 395.47 581.097 395.47 582.027 396.2C587.637 400.67 593.157 405.23 598.677 409.81C603.067 413.44 607.507 417 611.997 420.5C618.077 425.23 624.027 430.11 629.967 435.02C634.397 438.68 638.857 442.31 643.367 445.89C646.147 448.12 648.917 450.37 651.677 452.62C657.517 457.38 663.377 462.11 669.307 466.75C674.267 470.63 679.177 474.56 684.037 478.56C693.297 486.18 702.617 493.73 712.067 501.12C716.437 504.54 720.747 508.04 725.037 511.56C733.597 518.61 742.187 525.62 750.937 532.44C756.937 537.12 762.817 541.95 768.677 546.81C773.097 550.45 777.547 554.04 782.067 557.56C790.487 564.14 798.757 570.91 807.037 577.67C814.677 583.9 822.327 590.11 830.107 596.16C832.767 598.23 835.377 600.32 837.957 602.5C838.837 603.24 839.717 603.98 840.627 604.75C841.377 605.4 842.137 606.06 842.917 606.73C844.867 608.22 844.867 608.22 846.907 607.75C849.247 606.91 850.657 605.9 852.547 604.3C853.217 603.74 853.887 603.17 854.587 602.59C855.297 601.99 856.017 601.38 856.747 600.75C858.277 599.47 859.817 598.18 861.347 596.9C862.127 596.25 862.897 595.6 863.697 594.93C867.167 592.02 870.677 589.16 874.187 586.31C874.847 585.78 875.507 585.24 876.187 584.68C880.967 580.81 885.797 577.01 890.637 573.23C895.327 569.57 899.917 565.79 904.497 562C910.197 557.29 915.937 552.65 921.767 548.11C928.927 542.51 935.957 536.75 942.997 531C951.157 524.34 959.337 517.71 967.637 511.23C973.067 506.99 978.367 502.6 983.667 498.2C988.757 494 993.917 489.89 999.117 485.83C1003.48 482.42 1007.77 478.95 1012.04 475.44C1020.6 468.39 1029.19 461.38 1037.94 454.56C1043.94 449.88 1049.81 445.06 1055.67 440.2C1060.76 436 1065.92 431.89 1071.12 427.83C1075.48 424.42 1079.77 420.95 1084.04 417.44C1092.87 410.18 1101.73 402.97 1110.69 395.87C1111.25 395.43 1111.82 394.98 1112.4 394.51C1115.48 392.09 1118.59 389.94 1122 388C1122 388.66 1122 389.32 1122 390C1123.26 389.97 1124.51 389.94 1125.8 389.91C1166.89 388.95 1207.89 389 1249 389C1249 496.58 1249 604.16 1249 715C1224.58 715 1200.16 715 1175 715C1175 631.84 1175 548.68 1175 463C1146.69 461.18 1146.69 461.18 1135.94 469.37C1133.67 471.84 1133.67 471.84 1131.47 474.37C1129 477.12 1126.07 479.23 1123.13 481.44C1121.96 482.34 1120.8 483.24 1119.64 484.15C1119.05 484.61 1118.46 485.07 1117.85 485.55C1114.53 488.16 1111.27 490.83 1108 493.5C1103.06 497.53 1098.09 501.52 1093.07 505.44C1086.97 510.19 1081 515.09 1075.04 520.02C1070.61 523.68 1066.14 527.31 1061.64 530.89C1058.16 533.68 1054.71 536.5 1051.25 539.31C1046.23 543.41 1041.18 547.45 1036.07 551.44C1030.06 556.12 1024.19 560.94 1018.33 565.8C1013.24 570 1008.09 574.11 1002.88 578.17C998.527 581.58 994.237 585.05 989.967 588.56C981.397 595.61 972.807 602.62 964.067 609.44C958.057 614.12 952.187 618.94 946.327 623.8C941.237 628 936.087 632.11 930.877 636.17C926.527 639.58 922.237 643.05 917.967 646.56C908.697 654.18 899.387 661.73 889.937 669.12C885.567 672.54 881.267 676.03 876.977 679.55C872.617 683.13 868.247 686.7 863.857 690.24C860.847 692.67 857.847 695.11 854.927 697.64C854.067 698.38 853.197 699.12 852.307 699.87C851.587 700.51 850.857 701.15 850.117 701.8C847.997 703 847.997 703 845.727 703.09C841.527 701.41 838.467 698.56 835.067 695.63C833.537 694.34 832.017 693.06 830.497 691.78C829.357 690.82 829.357 690.82 828.207 689.84C825.067 687.22 821.857 684.7 818.627 682.19C813.687 678.33 808.807 674.42 803.967 670.44C795.397 663.39 786.807 656.38 778.067 649.56C772.057 644.88 766.187 640.06 760.327 635.2C755.237 631 750.087 626.89 744.877 622.83C740.527 619.42 736.237 615.95 731.967 612.44C723.397 605.39 714.807 598.38 706.067 591.56C700.057 586.88 694.187 582.06 688.327 577.2C683.237 573 678.087 568.89 672.877 564.83C668.527 561.42 664.237 557.95 659.967 554.44C651.397 547.39 642.807 540.38 634.067 533.56C628.057 528.88 622.187 524.06 616.327 519.2C611.237 515 606.087 510.89 600.877 506.83C596.527 503.42 592.237 499.95 587.967 496.44C579.207 489.24 570.417 482.07 561.497 475.06C560.927 474.61 560.347 474.16 559.757 473.69C556.587 471.21 553.377 468.8 550.127 466.44C549.097 465.63 548.067 464.83 546.997 464C546.997 463.34 546.997 462.68 546.997 462C536.767 462 526.537 462 515.997 462C515.997 545.16 515.997 628.32 515.997 714C491.907 714 467.817 714 442.997 714C442.997 606.75 442.997 499.5 442.997 389C571.717 387.99 571.717 387.99 580.187 394.75Z" fill="#871818"/>
<path d="M441 0C466.41 0 491.82 0 518 0C518 84.15 518 168.3 518 255C569.48 254.5 569.48 254.5 622 254C643.43 269.79 643.43 269.79 651.5 276C661.24 283.46 671.1 290.75 681 298C691.8 305.91 702.53 313.9 713.16 322.04C718.9 326.42 724.68 330.74 730.5 335C738.13 340.59 745.66 346.29 753.16 352.04C758.9 356.42 764.68 360.74 770.5 365C778.13 370.59 785.66 376.29 793.16 382.04C799.66 387 806.21 391.87 812.81 396.68C817.15 399.86 821.43 403.09 825.68 406.39C827.1 407.5 827.1 407.5 828.56 408.62C830.4 410.05 832.23 411.49 834.06 412.94C834.89 413.58 835.73 414.23 836.59 414.89C837.32 415.47 838.05 416.05 838.81 416.64C841.31 418.19 843.06 418.82 846 419C848.02 418.09 848.02 418.09 849.79 416.49C850.5 415.92 851.2 415.36 851.92 414.77C852.67 414.15 853.42 413.52 854.19 412.88C855.81 411.56 857.43 410.26 859.05 408.95C859.88 408.29 860.7 407.62 861.55 406.94C865.22 404.04 869 401.33 872.81 398.62C880.36 393.24 887.75 387.65 895.11 382.01C900.86 377.61 906.66 373.28 912.5 369C919.23 364.07 925.88 359.07 932.5 354C939.89 348.35 947.33 342.79 954.84 337.29C960.78 332.93 966.65 328.48 972.5 324C979.89 318.35 987.33 312.79 994.83 307.29C1000.8 302.91 1006.69 298.44 1012.56 293.94C1019.68 288.49 1026.87 283.17 1034.16 277.96C1042.88 271.69 1051.39 265.14 1059.9 258.6C1089.34 236.1 1133.95 254.65 1171 255C1171 170.85 1171 86.7 1171 0C1196.41 0 1221.82 0 1248 0C1248 108.57 1248 217.14 1248 329C1196.19 329.33 1144.38 329.66 1091 330C1076.14 340.93 1076.14 340.93 1061.44 352.06C1054.31 357.52 1047.11 362.85 1039.81 368.07C1033.06 372.91 1026.47 377.94 1019.89 382.99C1014.14 387.39 1008.34 391.72 1002.5 396C995.77 400.93 989.12 405.93 982.5 411C975.11 416.65 967.67 422.21 960.16 427.71C954.22 432.07 948.35 436.52 942.5 441C935.12 446.65 927.68 452.21 920.18 457.7C914.12 462.14 908.15 466.68 902.19 471.25C896 475.99 889.77 480.65 883.39 485.13C875.22 490.91 867.35 497.08 859.4 503.16C854.63 506.81 849.82 510.41 845 514C839.46 511.02 834.66 507.55 829.75 503.62C823.47 498.68 817.14 493.84 810.69 489.12C803.9 484.16 797.18 479.11 790.5 474C783.88 468.93 777.22 463.93 770.5 459C762.87 453.41 755.34 447.71 747.84 441.96C741.33 436.99 734.77 432.12 728.17 427.29C722.2 422.91 716.31 418.44 710.44 413.94C704.03 409.03 697.57 404.2 691 399.5C683.52 394.15 676.19 388.61 668.89 383.01C663.14 378.61 657.34 374.28 651.5 370C643.88 364.42 636.37 358.73 628.87 352.99C622.02 347.75 615.09 342.61 608.13 337.52C607.39 336.98 606.66 336.44 605.91 335.89C605.27 335.43 604.63 334.96 603.98 334.49C601.61 332.71 599.31 330.85 597 329C545.52 328.67 494.04 328.34 441 328C441 219.76 441 111.52 441 0Z" fill="#871818"/>
<path d="M1445 71C1469.42 71 1493.84 71 1519 71C1519 260.09 1519 449.18 1519 644C1494.58 644 1470.16 644 1445 644C1445 454.91 1445 265.82 1445 71Z" fill="#871818"/>
<path d="M295 71C319.09 71 343.18 71 368 71C368 260.09 368 449.18 368 644C343.91 644 319.82 644 295 644C295 454.91 295 265.82 295 71Z" fill="#871818"/>
<path d="M172 71C196.09 71 220.18 71 245 71C245 260.09 245 449.18 245 644C220.91 644 196.82 644 172 644C172 454.91 172 265.82 172 71Z" fill="#871818"/>
<path d="M1323 71C1346.76 71 1370.52 71 1395 71C1395 260.09 1395 449.18 1395 644C1371.24 644 1347.48 644 1323 644C1323 454.91 1323 265.82 1323 71Z" fill="#871818"/>
<path d="M1569 244C1593.09 244 1617.18 244 1642 244C1642 270.73 1642 297.46 1642 325C1657.84 325 1673.68 325 1690 325C1690 370.21 1690 415.42 1690 462C1674.16 462 1658.32 462 1642 462C1642 487.74 1642 513.48 1642 540C1617.91 540 1593.82 540 1569 540C1569 442.32 1569 344.64 1569 244Z" fill="#871818"/>
<path d="M47 244C71.09 244 95.18 244 120 244C120 341.68 120 439.36 120 540C95.91 540 71.82 540 47 540C47 514.26 47 488.52 47 462C31.49 462 15.98 462 0 462C0 416.79 0 371.58 0 325C15.51 325 31.02 325 47 325C47 298.27 47 271.54 47 244Z" fill="#871818"/>
</svg>
